<svg viewBox="374.92013498312707 76.80000000000001 617.6962879640045 617.472" xmlns="http://www.w3.org/2000/svg" data-name="Calque 1" id="Calque_1" style="max-height: 500px" width="617.6962879640045" height="617.472">
  <defs>
    <style>
      .cls-1 {
        fill: #001966;
      }
    </style>
  </defs>
  <path d="m946.62,389.89s-1.05,10.08-18.9,8.92c0,0,8.79,2.05,15.93-1.01,0,0,1.35,7.65-3.01,9.73-7.93,3-17.32,0-17.32,0,0,0-4.62-1.36-3.57-8.71,0,0-8.71-1.68-11.76-12.91-1.94-7.14.08-9.91,1.8-10.99.84-.52,2.5,0,2.66.98.5,2.98,1.04,8.15,3.59,9.37-.77-1.71-2.76-8.61-1.86-17,.25-2.3,2.62-7.66,9.97-7.45,0,0,13.96-1.05,17.95,1.26s4.93,8.19,5.04,10.5l-.52,17.32Z" class="cls-1"/>
  <path d="m423.58,389.89s1.05,10.08,18.9,8.92c0,0-8.79,2.05-15.93-1.01,0,0-1.35,7.65,3.01,9.73,7.93,3,17.32,0,17.32,0,0,0,4.62-1.36,3.57-8.71,0,0,8.71-1.68,11.76-12.91,1.94-7.14-.08-9.91-1.8-10.99-.84-.52-2.5,0-2.66.98-.5,2.98-1.04,8.15-3.59,9.37.77-1.71,2.76-8.61,1.86-17-.25-2.3-2.62-7.66-9.97-7.45,0,0-13.96-1.05-17.95,1.26s-4.93,8.19-5.04,10.5l.52,17.32Z" class="cls-1"/>
  <g>
    <path d="m682.56,84.01c-165.82,0-300.72,134.9-300.72,300.72s134.9,300.7,300.72,300.7,300.7-134.9,300.7-300.7S848.37,84.01,682.56,84.01Zm0,595.65c-162.64,0-294.95-132.31-294.95-294.94S519.93,89.77,682.56,89.77s294.94,132.31,294.94,294.95-132.31,294.94-294.94,294.94Z" class="cls-1"/>
    <path d="m750.4,359.42l9.27-23.78c8.81-22.56-2.18-48.19-24.48-57.11-43.66-17.46-84.43-8.02-110.93,2.98-11.36,4.71-20.29,14.07-24.48,25.68-4.24,11.69-3.36,24.73,2.42,35.74l8.22,15.72c-18.76,14.78-30.45,35.47-30.45,58.39,0,44.91,44.75,81.3,99.96,81.3s99.95-36.39,99.95-81.3c0-22.52-11.27-42.91-29.47-57.63Zm-143.21-29.47c-2.51-5.32-3.14-11.56-1.73-17.36,1.41-5.72,4.67-11.09,9.39-14.68,4.7-3.37,9.39-5.85,14.46-8.45-3.78,3.86-8.35,7.43-12.26,10.97-3.63,3.6-6.26,8.19-7.4,13.16-1.15,4.92-.98,10.16.66,15.08,1.77,5.2,3.45,10.48,4.7,15.92-2.91-4.76-5.45-9.66-7.83-14.65Zm-11.64,88.04c-.76,7.47-.56,15.07.17,22.75-2.49-7.3-3.69-15.11-3.55-22.97.25-23.6,15.38-46.54,37.13-55.81-18.31,13.09-31.71,33.39-33.75,56.03Zm122.91,6.85l-35.93,35.93-33.23-33.23.14-.14-3.1-3.09c-9.17-9.18-9.17-24.05,0-33.23,9.18-9.17,24.06-9.17,33.23,0l3.1,3.09,2.55-2.55c9.18-9.18,24.06-9.18,33.23,0,9.18,9.17,9.18,24.05,0,33.23Zm14.35-99.66l-7.58,19.42c-13.6-5.65-28.99-8.85-45.3-8.85s-31.1,3.07-44.49,8.51l-7.7-14.69c-2.05-3.92-2.35-8.38-.85-12.54,1.49-4.08,4.47-7.22,8.42-8.85,21.57-8.95,54.54-16.71,89.18-2.85,7.67,3.06,11.4,11.98,8.33,19.87Z" class="cls-1"/>
    <g>
      <path d="m661.27,254.93c-.68,0-1.29-.49-1.42-1.19l-6.51-36.37c-.14-.78.38-1.53,1.17-1.67.79-.15,1.53.38,1.67,1.17l6.51,36.37c.14.78-.38,1.53-1.17,1.67-.09.02-.17.02-.26.02Z" class="cls-1"/>
      <path d="m629.25,265.79c-.56,0-1.1-.33-1.33-.88l-7.06-16.83c-.31-.73.04-1.58.77-1.89.73-.31,1.58.04,1.89.77l7.06,16.83c.31.73-.04,1.58-.77,1.89-.18.08-.37.11-.56.11Z" class="cls-1"/>
      <path d="m682.41,257.37c-.8,0-1.44-.65-1.44-1.44v-20.63c0-.8.65-1.44,1.44-1.44s1.44.65,1.44,1.44v20.63c0,.8-.65,1.44-1.44,1.44Z" class="cls-1"/>
      <path d="m706.81,260.23c-.12,0-.25-.02-.37-.05-.77-.21-1.22-1-1.02-1.77l3.02-11.27c.21-.77,1-1.22,1.77-1.02.77.21,1.22,1,1.02,1.77l-3.02,11.27c-.17.64-.75,1.07-1.39,1.07Z" class="cls-1"/>
      <path d="m713.97,234.53c-.12,0-.25-.02-.37-.05-.77-.21-1.22-1-1.02-1.77l3.02-11.27c.21-.77,1-1.22,1.77-1.02.77.21,1.22,1,1.02,1.77l-3.02,11.27c-.17.64-.75,1.07-1.39,1.07Z" class="cls-1"/>
      <path d="m733.88,254.93c-.16,0-.32-.03-.48-.08-.75-.26-1.15-1.08-.89-1.84l8.46-24.21c.26-.75,1.09-1.15,1.84-.88.75.26,1.15,1.08.89,1.84l-8.46,24.21c-.21.59-.77.97-1.36.97Z" class="cls-1"/>
      <path d="m773.86,257.37c-.29,0-.58-.09-.84-.27-.65-.46-.8-1.36-.34-2.01l6-8.41c.46-.65,1.36-.8,2.01-.34.65.46.8,1.36.34,2.01l-6,8.41c-.28.39-.73.6-1.18.6Z" class="cls-1"/>
      <path d="m756.43,281.35c-.3,0-.6-.09-.85-.28-.64-.47-.78-1.38-.3-2.02l10.39-14.08c.47-.64,1.37-.78,2.02-.3.64.47.78,1.38.3,2.02l-10.39,14.08c-.28.38-.72.59-1.16.59Z" class="cls-1"/>
      <path d="m782.25,283.7c-.38,0-.76-.15-1.04-.45-.55-.58-.53-1.49.05-2.04l18.78-17.91c.58-.55,1.49-.53,2.04.05.55.58.53,1.49-.05,2.04l-18.78,17.91c-.28.27-.64.4-1,.4Z" class="cls-1"/>
      <path d="m779.87,322.61c-.46,0-.91-.22-1.19-.63-.45-.66-.28-1.55.37-2l23.51-16.11c.66-.45,1.55-.28,2.01.37.45.66.28,1.55-.37,2l-23.51,16.11c-.25.17-.53.25-.81.25Z" class="cls-1"/>
      <path d="m823.49,325.28c-.56,0-1.09-.33-1.32-.87-.32-.73.02-1.58.75-1.9l10.06-4.36c.73-.32,1.58.02,1.9.75.32.73-.02,1.58-.75,1.9l-10.06,4.36c-.19.08-.38.12-.57.12Z" class="cls-1"/>
      <path d="m788.28,339.02c-.57,0-1.11-.34-1.34-.9-.3-.74.06-1.58.79-1.88l21.46-8.72c.73-.3,1.58.05,1.88.79.3.74-.06,1.58-.79,1.88l-21.46,8.72c-.18.07-.36.11-.54.11Z" class="cls-1"/>
      <path d="m817.79,362.49c-.71,0-1.32-.52-1.42-1.24-.11-.79.43-1.52,1.22-1.63l30.18-4.36c.79-.11,1.52.43,1.63,1.22.11.79-.43,1.52-1.22,1.63l-30.18,4.36c-.07,0-.14.01-.21.01Z" class="cls-1"/>
      <path d="m786.94,366.52c-.71,0-1.33-.52-1.43-1.24-.11-.79.44-1.52,1.23-1.63l12.07-1.68c.79-.11,1.52.44,1.63,1.23s-.44,1.52-1.23,1.63l-12.07,1.68c-.07,0-.13.01-.2.01Z" class="cls-1"/>
      <path d="m851.65,384.87h-11.74c-.8,0-1.44-.65-1.44-1.44s.64-1.44,1.44-1.44h11.74c.8,0,1.44.65,1.44,1.44s-.64,1.44-1.44,1.44Z" class="cls-1"/>
      <path d="m824.49,384.87h-23.14c-.8,0-1.44-.65-1.44-1.44s.64-1.44,1.44-1.44h23.14c.8,0,1.44.65,1.44,1.44s-.64,1.44-1.44,1.44Z" class="cls-1"/>
      <path d="m848.3,420.16c-.1,0-.21-.01-.32-.04l-26.82-6.03c-.78-.17-1.26-.95-1.09-1.72s.94-1.27,1.72-1.09l26.82,6.03c.78.17,1.26.95,1.09,1.72-.15.67-.75,1.13-1.41,1.13Z" class="cls-1"/>
      <path d="m804.98,410.42c-.1,0-.21-.01-.32-.04l-12-2.7c-.78-.17-1.26-.95-1.09-1.72.17-.78.95-1.26,1.72-1.09l12,2.7c.78.17,1.26.95,1.09,1.72-.15.67-.75,1.13-1.41,1.13Z" class="cls-1"/>
      <path d="m832.88,449.33c-.18,0-.36-.03-.54-.11l-28.16-11.4c-.74-.3-1.09-1.14-.8-1.88.3-.74,1.14-1.1,1.88-.8l28.16,11.4c.74.3,1.09,1.14.8,1.88-.23.56-.77.9-1.34.9Z" class="cls-1"/>
      <path d="m818.79,483.87c-.31,0-.62-.1-.88-.3l-9.05-7.04c-.63-.49-.74-1.39-.25-2.02.49-.63,1.4-.74,2.02-.25l9.05,7.04c.63.49.74,1.39.25,2.02-.28.36-.71.56-1.14.56Z" class="cls-1"/>
      <path d="m798.97,468.45c-.31,0-.62-.1-.89-.31l-12.04-9.39c-.63-.49-.74-1.4-.25-2.02.49-.63,1.39-.74,2.02-.25l12.04,9.39c.63.49.74,1.4.25,2.02-.28.36-.71.55-1.14.55Z" class="cls-1"/>
      <path d="m801.36,503.31c-.36,0-.73-.14-1.01-.41l-21.49-21.12c-.57-.56-.58-1.47-.02-2.04.56-.57,1.47-.58,2.04-.02l21.49,21.12c.57.56.58,1.47.02,2.04-.28.29-.65.43-1.03.43Z" class="cls-1"/>
      <path d="m776.21,526.11c-.48,0-.96-.24-1.23-.69l-5.36-8.72c-.42-.68-.21-1.57.47-1.98.68-.42,1.57-.21,1.98.47l5.36,8.72c.42.68.21,1.57-.47,1.98-.24.15-.5.21-.75.21Z" class="cls-1"/>
      <path d="m763.14,506.33c-.49,0-.97-.25-1.24-.7l-7.04-11.74c-.41-.68-.19-1.57.49-1.98.68-.41,1.57-.19,1.98.49l7.04,11.74c.41.68.19,1.57-.49,1.98-.23.14-.49.21-.74.21Z" class="cls-1"/>
      <path d="m743.35,539.19c-.58,0-1.13-.35-1.35-.93l-9.39-24.48c-.29-.74.09-1.58.83-1.86.74-.28,1.58.09,1.86.83l9.39,24.48c.29.74-.09,1.58-.83,1.86-.17.06-.34.1-.52.1Z" class="cls-1"/>
      <path d="m706.13,528.46c-.7,0-1.32-.51-1.42-1.22l-2.35-15.42c-.12-.79.42-1.52,1.21-1.64.78-.12,1.52.42,1.64,1.21l2.35,15.42c.12.79-.42,1.52-1.21,1.64-.07.01-.15.02-.22.02Z" class="cls-1"/>
      <path d="m682.56,551.26c-.8,0-1.44-.64-1.44-1.44v-26.82c0-.8.65-1.44,1.44-1.44s1.44.64,1.44,1.44v26.82c0,.8-.65,1.44-1.44,1.44Z" class="cls-1"/>
      <path d="m651.15,551.26c-.1,0-.2,0-.31-.03-.78-.17-1.27-.93-1.11-1.71l6.37-29.5c.17-.78.94-1.28,1.71-1.11.78.17,1.27.93,1.11,1.71l-6.37,29.5c-.15.68-.74,1.14-1.41,1.14Z" class="cls-1"/>
      <path d="m614.6,540.53c-.18,0-.36-.03-.54-.11-.74-.3-1.09-1.14-.79-1.88l4.36-10.73c.3-.74,1.14-1.09,1.88-.79.74.3,1.09,1.14.79,1.88l-4.36,10.73c-.23.56-.77.9-1.34.9Z" class="cls-1"/>
      <path d="m622.98,520.75c-.16,0-.33-.03-.49-.09-.75-.27-1.13-1.1-.86-1.85l5.36-14.75c.27-.75,1.1-1.13,1.85-.86.75.27,1.13,1.1.86,1.85l-5.36,14.75c-.21.59-.77.95-1.36.95Z" class="cls-1"/>
      <path d="m585.09,520.75c-.3,0-.61-.09-.87-.29-.64-.48-.76-1.38-.29-2.02l15.76-20.95c.48-.63,1.38-.76,2.02-.28.64.48.76,1.38.29,2.02l-15.76,20.95c-.28.38-.72.57-1.15.57Z" class="cls-1"/>
      <path d="m563.3,503.31c-.38,0-.76-.15-1.04-.44-.55-.57-.53-1.49.04-2.04l8.38-8.05c.57-.55,1.49-.54,2.04.04.55.57.53,1.49-.04,2.04l-8.38,8.05c-.28.27-.64.4-1,.4Z" class="cls-1"/>
      <path d="m579.97,486.55c-.37,0-.74-.14-1.03-.43-.56-.57-.55-1.48.01-2.04l6.8-6.71c.57-.56,1.48-.55,2.04.01.56.57.55,1.48-.01,2.04l-6.8,6.71c-.28.28-.65.42-1.01.42Z" class="cls-1"/>
      <path d="m543.52,483.2c-.44,0-.88-.2-1.17-.59-.47-.64-.33-1.55.31-2.02l22.46-16.43c.64-.47,1.54-.33,2.01.31.47.64.33,1.55-.31,2.02l-22.46,16.43c-.26.19-.55.28-.85.28Z" class="cls-1"/>
      <path d="m523.07,449.33c-.57,0-1.11-.34-1.34-.9-.3-.74.06-1.58.8-1.88l28.16-11.4c.74-.3,1.58.06,1.88.8.3.74-.06,1.58-.8,1.88l-28.16,11.4c-.18.07-.36.11-.54.11Z" class="cls-1"/>
      <path d="m516.69,412.45c-.71,0-1.33-.52-1.43-1.24-.11-.79.44-1.52,1.23-1.63l12.07-1.68c.79-.12,1.52.44,1.63,1.23.11.79-.44,1.52-1.23,1.63l-12.07,1.68c-.07,0-.13.01-.2.01Z" class="cls-1"/>
      <path d="m541.17,408.76c-.7,0-1.31-.51-1.42-1.22-.12-.79.42-1.52,1.2-1.65l23.81-3.69c.78-.12,1.52.42,1.65,1.2.12.79-.42,1.52-1.2,1.65l-23.81,3.69c-.08.01-.15.02-.22.02Z" class="cls-1"/>
      <path d="m546.2,384.87h-32.52c-.8,0-1.44-.65-1.44-1.44s.65-1.44,1.44-1.44h32.52c.8,0,1.44.65,1.44,1.44s-.65,1.44-1.44,1.44Z" class="cls-1"/>
      <path d="m574.37,384.87h-11.74c-.8,0-1.44-.65-1.44-1.44s.65-1.44,1.44-1.44h11.74c.8,0,1.44.65,1.44,1.44s-.65,1.44-1.44,1.44Z" class="cls-1"/>
      <path d="m529.94,358.47c-.12,0-.24-.01-.35-.04l-11.9-3.02c-.77-.2-1.24-.98-1.04-1.75.2-.77.98-1.24,1.75-1.04l11.9,3.02c.77.2,1.24.98,1.04,1.75-.17.65-.75,1.09-1.4,1.09Z" class="cls-1"/>
      <path d="m559.28,364.84c-.11,0-.22-.01-.33-.04l-20.12-4.69c-.78-.18-1.26-.96-1.08-1.73.18-.78.96-1.26,1.73-1.08l20.12,4.69c.78.18,1.26.96,1.08,1.73-.15.67-.75,1.11-1.4,1.11Z" class="cls-1"/>
      <path d="m533.46,325.28c-.2,0-.41-.04-.6-.13l-9.47-4.36c-.72-.33-1.04-1.19-.71-1.91.33-.72,1.19-1.04,1.91-.71l9.47,4.36c.72.33,1.04,1.19.71,1.91-.24.53-.76.84-1.31.84Z" class="cls-1"/>
      <path d="m568.5,339.02c-.19,0-.39-.04-.58-.12l-22.3-9.72c-.73-.32-1.06-1.17-.74-1.9.32-.73,1.17-1.07,1.9-.74l22.3,9.72c.73.32,1.06,1.17.74,1.9-.24.54-.77.87-1.32.87Z" class="cls-1"/>
      <path d="m587.11,348.08c-.17,0-.34-.03-.51-.1l-5.36-2.04c-.74-.28-1.12-1.12-.83-1.86.28-.74,1.11-1.12,1.86-.83l5.36,2.04c.74.28,1.12,1.12.83,1.86-.22.58-.77.93-1.35.93Z" class="cls-1"/>
      <path d="m571.35,306.5c-.3,0-.6-.09-.86-.29l-26.49-19.78c-.64-.48-.77-1.38-.29-2.02.48-.64,1.38-.77,2.02-.29l26.49,19.78c.64.48.77,1.38.29,2.02-.28.38-.72.58-1.16.58Z" class="cls-1"/>
      <path d="m571.35,274.31c-.36,0-.73-.14-1.01-.41l-8.72-8.53c-.57-.56-.58-1.47-.02-2.04.56-.57,1.47-.58,2.04-.02l8.72,8.53c.57.56.58,1.47.02,2.04-.28.29-.66.43-1.03.43Z" class="cls-1"/>
      <path d="m589.79,291.75c-.37,0-.74-.14-1.02-.42l-8.38-8.38c-.56-.56-.56-1.48,0-2.04s1.48-.56,2.04,0l8.38,8.38c.56.56.56,1.48,0,2.04-.28.28-.65.42-1.02.42Z" class="cls-1"/>
      <path d="m605.55,274.31c-.47,0-.94-.23-1.21-.66l-16.43-25.35c-.43-.67-.24-1.56.43-1.99.67-.43,1.56-.24,1.99.43l16.43,25.35c.43.67.24,1.56-.43,1.99-.24.16-.51.23-.78.23Z" class="cls-1"/>
    </g>
    <path d="m681.8,188.42c-108.42,0-196.62,88.21-196.62,196.62s88.2,196.63,196.62,196.63,196.62-88.21,196.62-196.63-88.21-196.62-196.62-196.62Zm0,387.49c-105.24,0-190.85-85.63-190.85-190.87s85.61-190.85,190.85-190.85,190.85,85.63,190.85,190.85-85.61,190.87-190.85,190.87Z" class="cls-1"/>
    <g>
      <path d="m494.36,280.58l-2.57,5.94-45.95-19.87.36-.85c2.75-6.34,8.36-6.49,21.38-5.33l.58-1.33-17.84-6.88-17.82,41.19,17.23,8.28.58-1.33c-9.29-8.25-13.5-12.89-10.74-19.23l.39-.91,45.94,19.87-2.57,5.94,1.47.63,11.03-25.49-1.47-.63Z" class="cls-1"/>
      <path d="m537.85,221.61l-2.88,3.45-38.58-32.35,2.87-3.45-1.1-.92-15.3,18.25,1.11.92,2.88-3.43,18.07,15.14-9.72,11.61-18.08-15.15,2.84-3.37-1.11-.94-15.24,18.2,1.11.92,2.87-3.43,38.6,32.34-2.88,3.45,1.11.92,15.24-18.2-1.1-.92-2.84,3.39-19-15.93,9.72-11.61,19,15.93-2.87,3.45,1.1.92,15.3-18.25-1.11-.92Z" class="cls-1"/>
      <path d="m571.9,179.45l-1.25.85c2.75,8.15.92,17.39-7.08,22.81l-2.38,1.61-13.7-20.21,1.5-1.02c4.41-2.98,8.48-2.16,14.25,3.11l1.08-.72-12.63-18.64-.95.63c2.18,5.52,1.87,10.77-2.22,13.55l-2.13,1.44-13.19-19.46,2.21-1.49c7.63-5.16,12.5-4.34,21.56,1.57l1.14-.78-9.08-12.04-32.76,22.19.94,1.38,3.72-2.52,28,41.32-3.72,2.52.94,1.38,18.38-12.46,16.19-10.97-8.79-14.07Z" class="cls-1"/>
      <path d="m653.01,148.05l2.9-.63-.36-1.63-21.4,4.67.35,1.63,4.76-1.04,3.16,14.42c.72,3.32.81,5.38-2.61,6.62-.16.06-.32.1-.49.16-.37.12-.81.23-1.27.33-6.85,1.5-12.4-5.08-15.7-20.17l-1.28-5.87c-3.36-15.38-.84-23.1,6.52-24.71,6.55-1.43,12.93,4.66,18.92,12.07l1.34-.29-4.12-16-.81.19c-.32,1.08-.5,1.66-1.69,1.92-2.6.58-7.12-.85-14.85.84-15.24,3.32-23.57,15.11-19.64,33.1,3.88,17.76,15.36,23.98,31.11,20.53.65-.14,1.28-.32,1.9-.5.17-.06.35-.1.52-.17,5.31-1.69,9.43-4.71,12.01-5.28,2.08-.45,3.03-.03,4.2,1.04l1.12-.25-4.58-20.96Z" class="cls-1"/>
      <path d="m715.49,169.29l-16.02-53.32-6.23-.37-22.49,51.03-3.56-.22-.09,1.44,11.62.69.09-1.44-5.7-.35,6.82-16.05,15.04.89,4.57,16.74-5.39-.32-.09,1.44,24.83,1.49.09-1.46-3.49-.2Zm-34.76-20.21l8.32-19.48,5.42,20.3-13.74-.82Z" class="cls-1"/>
      <path d="m765.84,130.1l-.65-.23-20.96-7.57-.49,1.36,4.66,1.69-17.1,47.38-4.64-1.69-.49,1.36,23.26,8.39.49-1.36-4.66-1.67,8.65-23.98,2.29.82,1.5.55c3.86,1.4,3.92,4.4,2.08,9.49l-1.87,5.22c-3.65,10.09-2.08,14.06,6.94,17.3,6.66,2.41,9.4,1.05,13.42-6.72l-1.17-.58c-2.94,5.23-4.22,5.42-5.51,4.96-2-.72-1.63-2.45.06-7.09l1.37-3.79c2.98-8.3,1.43-12.27-5.94-16.06l.07-.22c7.81,2.11,13.34,1.18,16.48-7.56,3.76-10.45-2.81-14.61-17.78-20Zm3.46,13.29l-.75,2.08c-2.8,7.73-6.57,9.67-11.87,7.77l-2.29-.82,7.96-22.05,2.35.85c5.02,1.8,7.48,4.15,4.6,12.17Z" class="cls-1"/>
      <path d="m836.39,167.03l-5.05-3.66-46.44,30.85-2.9-2.1-.84,1.17,9.4,6.85.85-1.17-4.61-3.36,14.4-9.85,12.18,8.87-5.18,16.55-4.37-3.17-.85,1.17,20.13,14.63.85-1.17-2.84-2.06,15.25-53.55Zm-22.51,25.88l-11.13-8.1,17.5-11.91-6.37,20.01Z" class="cls-1"/>
      <path d="m895.59,228.36c-1.11.19-1.72.29-2.47-.66-1.66-2.08-2.38-6.76-7.31-12.95-9.73-12.18-23.99-14.45-38.38-2.96-14.2,11.33-14.69,24.38-4.64,36.98.26.32.52.63.79.94,4.04,4.58,9.16,7.14,10.93,9.37,1.34,1.66,1.38,2.7.94,4.21l.72.89,16.75-13.38,1.86,2.32,1.31-1.04-13.67-17.13-1.31,1.04,3.04,3.81-11.53,9.21c-2.85,2.26-4.74,3.26-7.71-.07-.19-.22-.39-.45-.59-.71-4.37-5.46-.94-13.37,11.13-23l4.7-3.75c12.31-9.82,20.34-10.97,25.04-5.09,4.17,5.23,1.54,13.65-2.45,22.3l.85,1.07,12.51-10.77-.52-.65Z" class="cls-1"/>
      <path d="m911.81,254.66l-1.54.65,1.74,4.14-45.99,19.38-1.74-4.14-1.54.65,8.64,20.47,7.58,18.01,15.51-5.87-.59-1.41c-8.52,1.12-17.22-2.48-20.96-11.38l-1.12-2.67,22.49-9.49.72,1.69c2.06,4.9.45,8.72-5.85,13.37l.5,1.18,20.75-8.74-.45-1.05c-5.82,1.05-10.91-.27-12.85-4.83l-.99-2.38,21.66-9.13,1.04,2.45c3.58,8.49,1.8,13.11-5.75,20.83l.53,1.27,13.58-6.56-15.36-36.45Z" class="cls-1"/>
    </g>
    <g>
      <path d="m621.3,593.76c-.88.74-1.37,1.12-2.52.68-2.54-1.01-5.13-4.61-12.66-7.58-14.85-5.85-28.63-.59-35.55,16.94-6.82,17.3-.61,29.12,14.75,35.18,7.97,3.14,12.83,2.47,15.3,3.45,1.15.45,1.25,1.08,1.38,2.22l.79.3,6.88-15.95-1.3-.52c-7.77,7.83-14.88,12.05-20.75,9.73-7.89-3.11-8.33-13.24-3.09-26.56l2.26-5.72c5.91-14.99,12.44-20.11,19.77-17.23,6.23,2.45,8.15,10.32,8.61,20.81l1.31.5,5.61-15.95-.79-.3Z" class="cls-1"/>
      <path d="m670.19,638.25c-5.72,8.85-10.84,15.28-20.43,14.09l-2.78-.35,6.33-50.69,8.19,1.02.2-1.7-27.81-3.46-.2,1.7,4.56.56-6.33,50.68-4.56-.56-.22,1.7,22.41,2.8,18.56,2.31,3.72-17.89-1.63-.2Z" class="cls-1"/>
      <path d="m732.97,633.52l-3.98-34.4,4.25-.5-.17-1.46-11.29,1.3.17,1.47,5.03-.58,4.04,34.95c1.28,11.06-3.17,16.51-10.99,17.42-9.52,1.1-12.24-4.86-13.22-13.37l-4.2-36.19,5.03-.58-.17-1.47-24.37,2.83.17,1.47,4.25-.5,3.89,33.57c1.77,15.4,11.35,18.83,23.95,17.37,15.86-1.85,18.97-9.42,17.59-21.32Z" class="cls-1"/>
      <path d="m798.71,614.26c-3-7.6-9.88-9.33-19.45-6.88l-.06-.14c7.12-4.24,10.01-9.65,7.25-16.6-3.53-8.98-12.07-8.97-24.81-3.94l-.5.2-21.15,8.35.55,1.37,4.7-1.86,18.92,47.95-4.7,1.85.55,1.38,21.28-8.41c.32-.13.65-.26.95-.39,13.06-5.29,20.82-11.92,16.48-22.9Zm-39.35-25.06l2.32-.92c5.06-1.99,7.35.2,10.09,7.15l1.34,3.4c2.35,5.94,2.15,9.88-3.07,11.92l-1.89.75-8.79-22.3Zm22.32,46.6l-.95.37-2.45.97-9.57-24.27,1.66-.65c7.04-2.78,10.34.1,12.69,6.04l1.51,3.84c2.62,6.66,2.7,11.49-2.88,13.7Z" class="cls-1"/>
    </g>
  </g>
</svg>