<svg xmlns="http://www.w3.org/2000/svg" id="ENTREPRISE" viewBox="248.98 104.75 329.15 60">
  <defs>
    <style>
      .cls-1 {
        fill: #f36;
      }

      .cls-2 {
        fill: #96f;
      }

      .cls-3 {
        fill: #0c9;
      }

      .cls-4 {
        fill: #39f;
      }
    </style>
  </defs>
  <g>
    <path d="M322.694450151389901,148.92181755513775v-27.99951171875h5.9599609375l8.16015625,12.080078125,8.15966796875-12.080078125h5.92041015625v27.99951171875h-5.4404296875v-19.439453125l-8.6396484375,12.7197265625-8.64013671875-12.6796875v19.3994140625h-5.47998046875Z"/>
    <path d="M368.014274370139901,148.92181755513775v-5.51953125h-13.0400390625v-4.3603515625l12.39990234375-18.11962890625h5.80029296875v17.79931640625h4.8798828125v4.6806640625h-4.8798828125v5.51953125h-5.16015625ZM360.614372026389901,138.72162224263775h7.39990234375v-10.83935546875l-7.39990234375,10.83935546875Z"/>
    <path d="M391.813590776389901,148.92181755513775v-27.99951171875h17.7197265625v5h-12.23974609375v6.35986328125h10.56005859375v4.8798828125h-10.56005859375v6.759765625h12.39990234375v5h-17.8798828125Z"/>
    <path d="M414.612907182639901,148.92181755513775v-19.99951171875h4.96044921875l.240234375,2.72021484375c.6396484375-1.0400390625,1.4599609375-1.83349609375,2.4599609375-2.38037109375,1-.5458984375,2.1396484375-.81982421875,3.419921875-.81982421875,1.5732421875,0,2.919921875.31982421875,4.0400390625.9599609375,1.119140625.64013671875,1.97265625,1.6337890625,2.5595703125,2.97998046875.5859375,1.3466796875.8662109375,3.08642578125.83984375,5.21923828125v11.3203125h-5.2802734375v-10.240234375c0-1.359375-.1533203125-2.4130859375-.4599609375-3.1591796875-.306640625-.74658203125-.7392578125-1.2861328125-1.2998046875-1.6201171875-.5595703125-.3330078125-1.2138671875-.5-1.9599609375-.5-1.359375-.0263671875-2.40625.38671875-3.1396484375,1.240234375-.734375.853515625-1.1005859375,2.119140625-1.1005859375,3.798828125v10.48046875h-5.27978515625Z"/>
    <path d="M445.572379838889901,149.40228630513775c-2.212890625,0-3.88671875-.546875-5.01953125-1.640625-1.1337890625-1.0927734375-1.7001953125-2.6533203125-1.7001953125-4.6796875v-9.6796875h-3.240234375v-4.47998046875h3.240234375v-6.240234375h5.2802734375v6.240234375h5v4.47998046875h-5v8.51953125c0,.853515625.1865234375,1.5.5595703125,1.9404296875.373046875.439453125.919921875.6591796875,1.640625.6591796875.265625,0,.5595703125-.0595703125.8798828125-.1796875s.6533203125-.2998046875,1-.5400390625l1.83984375,3.9599609375c-.6396484375.48046875-1.353515625.8740234375-2.1396484375,1.1796875-.787109375.306640625-1.5673828125.4609375-2.3408203125.4609375Z"/>
    <path d="M453.413200151389901,148.92181755513775v-19.99951171875h5.279296875v3.68017578125c.8271484375-1.25341796875,1.8740234375-2.193359375,3.140625-2.8203125,1.265625-.6259765625,2.580078125-.93994140625,3.939453125-.93994140625v5.1201171875c-1.2265625,0-2.3798828125.14697265625-3.4599609375.43994140625-1.080078125.2939453125-1.953125.77392578125-2.6201171875,1.439453125-.666015625.6669921875-1,1.5205078125-1,2.560546875v10.51953125h-5.279296875Z"/>
    <path d="M477.613395463889901,149.40228630513775c-1.9736328125,0-3.720703125-.447265625-5.240234375-1.3408203125-1.5205078125-.892578125-2.7138671875-2.1259765625-3.580078125-3.69921875-.8671875-1.5732421875-1.2998046875-3.38671875-1.2998046875-5.4404296875s.4462890625-3.86572265625,1.33984375-5.439453125c.8935546875-1.5732421875,2.1201171875-2.80615234375,3.6796875-3.7001953125,1.560546875-.89306640625,3.353515625-1.33984375,5.3798828125-1.33984375,1.7607421875,0,3.380859375.4599609375,4.8603515625,1.3798828125,1.48046875.919921875,2.666015625,2.26708984375,3.5595703125,4.0400390625.8935546875,1.7734375,1.3408203125,3.9267578125,1.3408203125,6.4599609375h-14.640625c.1337890625,1.3330078125.7060546875,2.3935546875,1.720703125,3.1796875,1.0126953125.787109375,2.1591796875,1.1796875,3.439453125,1.1796875,1.0927734375,0,1.986328125-.232421875,2.6796875-.7001953125.693359375-.4658203125,1.2265625-1.072265625,1.6005859375-1.8193359375l4.7197265625,1.83984375c-.5595703125,1.1201171875-1.287109375,2.0869140625-2.1796875,2.900390625-.8935546875.8134765625-1.9541015625,1.43359375-3.1806640625,1.859375-1.2265625.4267578125-2.6259765625.640625-4.19921875.640625ZM473.293082963889901,136.40228630513775h8.6396484375c-.080078125-.826171875-.3466796875-1.4931640625-.7998046875-2-.453125-.50634765625-.986328125-.8798828125-1.599609375-1.1201171875-.6142578125-.23974609375-1.2138671875-.35986328125-1.7998046875-.35986328125-.560546875,0-1.1669921875.11376953125-1.8203125.33984375-.654296875.22705078125-1.2265625.59375-1.7197265625,1.10009765625-.494140625.5068359375-.7939453125,1.1865234375-.900390625,2.0400390625Z"/>
    <path d="M490.932731401389901,156.92181755513775v-27.99951171875h4.9599609375l.2392578125,2.83984375c.6669921875-1.06591796875,1.513671875-1.88623046875,2.5400390625-2.4599609375,1.0263671875-.5732421875,2.220703125-.85986328125,3.580078125-.85986328125,1.83984375,0,3.43359375.4267578125,4.7802734375,1.27978515625,1.345703125.85400390625,2.392578125,2.06005859375,3.1396484375,3.6201171875.74609375,1.56005859375,1.1201171875,3.41943359375,1.1201171875,5.57958984375,0,2.1337890625-.3740234375,3.9873046875-1.1201171875,5.5595703125-.7470703125,1.57421875-1.7939453125,2.787109375-3.1396484375,3.640625-1.3466796875.8525390625-2.9404296875,1.2802734375-4.7802734375,1.2802734375-1.333984375,0-2.5068359375-.2802734375-3.51953125-.8408203125-1.013671875-.5595703125-1.8544921875-1.345703125-2.5205078125-2.359375v10.7197265625h-5.279296875ZM500.892692338889901,144.56146599263775c.9599609375,0,1.8056640625-.2392578125,2.5400390625-.7197265625.732421875-.4794921875,1.3125-1.146484375,1.7392578125-2s.640625-1.826171875.640625-2.919921875c0-1.0927734375-.20703125-2.0595703125-.6201171875-2.8994140625-.4140625-.84033203125-.9873046875-1.5-1.720703125-1.97998046875s-1.5791015625-.72021484375-2.5390625-.72021484375c-.9072265625,0-1.720703125.240234375-2.4404296875.72021484375s-1.2802734375,1.1396484375-1.6796875,1.97998046875c-.400390625.83984375-.6005859375,1.806640625-.6005859375,2.8994140625,0,1.09375.2001953125,2.06640625.6005859375,2.919921875.3994140625.853515625.953125,1.5205078125,1.6591796875,2,.70703125.48046875,1.513671875.7197265625,2.4208984375.7197265625Z"/>
    <path d="M514.772575151389901,148.92181755513775v-19.99951171875h5.279296875v3.68017578125c.8271484375-1.25341796875,1.8740234375-2.193359375,3.140625-2.8203125,1.265625-.6259765625,2.580078125-.93994140625,3.939453125-.93994140625v5.1201171875c-1.2265625,0-2.3798828125.14697265625-3.4599609375.43994140625-1.080078125.2939453125-1.953125.77392578125-2.6201171875,1.439453125-.666015625.6669921875-1,1.5205078125-1,2.560546875v10.51953125h-5.279296875Z"/>
    <path d="M532.892692338889901,125.68207146138775c-.7998046875,0-1.5068359375-.2998046875-2.1201171875-.89990234375-.6142578125-.60009765625-.919921875-1.31298828125-.919921875-2.1396484375s.3056640625-1.5400390625.919921875-2.14013671875c.61328125-.60009765625,1.3203125-.89990234375,2.1201171875-.89990234375.826171875,0,1.5400390625.2998046875,2.1396484375.89990234375.6005859375.60009765625.900390625,1.3134765625.900390625,2.14013671875s-.2998046875,1.53955078125-.900390625,2.1396484375c-.599609375.60009765625-1.3134765625.89990234375-2.1396484375.89990234375ZM530.252067338889901,148.92181755513775v-19.99951171875h5.2802734375v19.99951171875h-5.2802734375Z"/>
    <path d="M547.891715776389901,149.40228630513775c-1.279296875,0-2.4794921875-.1943359375-3.599609375-.580078125-1.1201171875-.38671875-2.107421875-.9462890625-2.9599609375-1.6806640625-.853515625-.732421875-1.5205078125-1.6328125-2-2.7001953125l4.51953125-2.0791015625c.400390625.6396484375.9462890625,1.193359375,1.640625,1.6591796875.6923828125.466796875,1.4931640625.7001953125,2.3994140625.7001953125.8798828125,0,1.560546875-.1259765625,2.0400390625-.3798828125.48046875-.2529296875.7197265625-.6201171875.7197265625-1.099609375,0-.48046875-.193359375-.8330078125-.5791015625-1.060546875-.3876953125-.2255859375-.9140625-.419921875-1.580078125-.580078125l-1.8408203125-.4794921875c-1.919921875-.5068359375-3.43359375-1.3134765625-4.5390625-2.419921875-1.107421875-1.1064453125-1.66015625-2.3798828125-1.66015625-3.81982421875,0-2.05322265625.66015625-3.64013671875,1.9794921875-4.759765625,1.3203125-1.1201171875,3.193359375-1.68017578125,5.6201171875-1.68017578125,1.2529296875,0,2.419921875.18701171875,3.5.56005859375,1.080078125.37353515625,2.005859375.8935546875,2.7802734375,1.56005859375.7724609375.66650390625,1.3056640625,1.43994140625,1.599609375,2.31982421875l-4.359375,2c-.1875-.533203125-.640625-.96630859375-1.3603515625-1.2998046875s-1.4404296875-.5-2.16015625-.5-1.2734375.15380859375-1.66015625.4599609375c-.38671875.306640625-.580078125.7265625-.580078125,1.259765625,0,.34716796875.1865234375.63330078125.560546875.85986328125.373046875.2265625.90625.419921875,1.599609375.580078125l2.6005859375.6396484375c1.3056640625.3203125,2.3525390625.833984375,3.1396484375,1.5400390625.7861328125.70703125,1.3603515625,1.494140625,1.7197265625,2.3603515625.3603515625.8662109375.5400390625,1.7138671875.5400390625,2.5400390625,0,1.19921875-.353515625,2.259765625-1.0595703125,3.1796875-.70703125.919921875-1.6669921875,1.6337890625-2.8798828125,2.1396484375-1.2138671875.5068359375-2.59375.7607421875-4.140625.7607421875Z"/>
    <path d="M568.091911088889901,149.40228630513775c-1.9736328125,0-3.720703125-.447265625-5.240234375-1.3408203125-1.5205078125-.892578125-2.7138671875-2.1259765625-3.580078125-3.69921875-.8671875-1.5732421875-1.2998046875-3.38671875-1.2998046875-5.4404296875s.4462890625-3.86572265625,1.33984375-5.439453125c.8935546875-1.5732421875,2.1201171875-2.80615234375,3.6796875-3.7001953125,1.560546875-.89306640625,3.353515625-1.33984375,5.3798828125-1.33984375,1.7607421875,0,3.380859375.4599609375,4.8603515625,1.3798828125,1.48046875.919921875,2.666015625,2.26708984375,3.5595703125,4.0400390625.8935546875,1.7734375,1.3408203125,3.9267578125,1.3408203125,6.4599609375h-14.640625c.1337890625,1.3330078125.7060546875,2.3935546875,1.720703125,3.1796875,1.0126953125.787109375,2.1591796875,1.1796875,3.439453125,1.1796875,1.0927734375,0,1.986328125-.232421875,2.6796875-.7001953125.693359375-.4658203125,1.2265625-1.072265625,1.6005859375-1.8193359375l4.7197265625,1.83984375c-.5595703125,1.1201171875-1.287109375,2.0869140625-2.1796875,2.900390625-.8935546875.8134765625-1.9541015625,1.43359375-3.1806640625,1.859375-1.2265625.4267578125-2.6259765625.640625-4.19921875.640625ZM563.771598588889901,136.40228630513775h8.6396484375c-.080078125-.826171875-.3466796875-1.4931640625-.7998046875-2-.453125-.50634765625-.986328125-.8798828125-1.599609375-1.1201171875-.6142578125-.23974609375-1.2138671875-.35986328125-1.7998046875-.35986328125-.560546875,0-1.1669921875.11376953125-1.8203125.33984375-.654296875.22705078125-1.2265625.59375-1.7197265625,1.10009765625-.494140625.5068359375-.7939453125,1.1865234375-.900390625,2.0400390625Z"/>
  </g>
  <g id="Calque_2" data-name="Calque 2">
    <rect class="cls-2" x="286.481584779411094" y="125.425965511480101" width="18.640625080451514" height="18.640614563190539" rx="4.20000129277535" ry="4.20000129277535" transform="translate(-8.643819109145454 248.623953827105652) rotate(-44.9989003199818)"/>
    <rect class="cls-4" x="252.843392306098281" y="125.426026931634667" width="18.640602119536197" height="18.640592611229877" rx="4.199949666521427" ry="4.199949666521427" transform="translate(-18.495093502632471 224.840824172056301) rotate(-44.999349682150722)"/>
    <rect class="cls-1" x="269.662531728088254" y="142.245074390199704" width="18.640615368926547" height="18.640615368916315" rx="4.200142628235952" ry="4.200142628235952" transform="translate(-25.459851104492543 241.666091954601882) rotate(-45.00055739818815)"/>
    <rect class="cls-3" x="269.662441733255548" y="108.606878954912773" width="18.640694470893607" height="18.640693459287704" rx="4.200073593612045" ry="4.200073593612045" transform="translate(-1.674783923521943 231.811174846225924) rotate(-45.000095585414577)"/>
  </g>
</svg>